<svg xmlns="http://www.w3.org/2000/svg" xmlns:xlink="http://www.w3.org/1999/xlink"><symbol viewBox="0 0 24 28" id="bars" xmlns="http://www.w3.org/2000/svg"><path d="M24 21v2c0 .547-.453 1-1 1H1c-.547 0-1-.453-1-1v-2c0-.547.453-1 1-1h22c.547 0 1 .453 1 1zm0-8v2c0 .547-.453 1-1 1H1c-.547 0-1-.453-1-1v-2c0-.547.453-1 1-1h22c.547 0 1 .453 1 1zm0-8v2c0 .547-.453 1-1 1H1c-.547 0-1-.453-1-1V5c0-.547.453-1 1-1h22c.547 0 1 .453 1 1z"/></symbol><symbol viewBox="0 0 28 28" id="bullhorn" xmlns="http://www.w3.org/2000/svg"><path d="M26 10c1.109 0 2 .891 2 2s-.891 2-2 2v6c0 1.094-.906 2-2 2-2.781-2.312-7.266-5.484-12.688-5.938-1.859.625-2.5 2.797-1.281 4.047-1.094 1.797.313 3.063 1.969 4.359-.969 1.906-5 1.937-6.438.609-.906-2.781-2.25-5.563-1.156-9.078H2.5a2.507 2.507 0 0 1-2.5-2.5v-3c0-1.375 1.125-2.5 2.5-2.5H10c6 0 11-3.5 14-6 1.094 0 2 .906 2 2v6zm-2 9.437V4.531c-4.078 3.125-8.031 4.922-12 5.359v4.219c3.969.438 7.922 2.203 12 5.328z"/></symbol><symbol viewBox="0 0 22 28" id="close" xmlns="http://www.w3.org/2000/svg"><path d="M20.281 20.656c0 .391-.156.781-.438 1.062l-2.125 2.125c-.281.281-.672.438-1.062.438s-.781-.156-1.062-.438L11 19.249l-4.594 4.594c-.281.281-.672.438-1.062.438s-.781-.156-1.062-.438l-2.125-2.125c-.281-.281-.438-.672-.438-1.062s.156-.781.438-1.062L6.751 15l-4.594-4.594c-.281-.281-.438-.672-.438-1.062s.156-.781.438-1.062l2.125-2.125c.281-.281.672-.438 1.062-.438s.781.156 1.062.438L11 10.751l4.594-4.594c.281-.281.672-.438 1.062-.438s.781.156 1.062.438l2.125 2.125c.281.281.438.672.438 1.062s-.156.781-.438 1.062L15.249 15l4.594 4.594c.281.281.438.672.438 1.062z"/></symbol><symbol viewBox="0 0 28 28" id="envelope" xmlns="http://www.w3.org/2000/svg"><path d="M28 11.094V23.5c0 1.375-1.125 2.5-2.5 2.5h-23A2.507 2.507 0 0 1 0 23.5V11.094c.469.516 1 .969 1.578 1.359 2.594 1.766 5.219 3.531 7.766 5.391 1.313.969 2.938 2.156 4.641 2.156h.031c1.703 0 3.328-1.188 4.641-2.156 2.547-1.844 5.172-3.625 7.781-5.391a9.278 9.278 0 0 0 1.563-1.359zM28 6.5c0 1.75-1.297 3.328-2.672 4.281-2.438 1.687-4.891 3.375-7.313 5.078-1.016.703-2.734 2.141-4 2.141h-.031c-1.266 0-2.984-1.437-4-2.141-2.422-1.703-4.875-3.391-7.297-5.078-1.109-.75-2.688-2.516-2.688-3.938 0-1.531.828-2.844 2.5-2.844h23c1.359 0 2.5 1.125 2.5 2.5z"/></symbol><symbol viewBox="0 0 26 28" id="twitter" xmlns="http://www.w3.org/2000/svg"><path d="M25.312 6.375a10.85 10.85 0 0 1-2.531 2.609c.016.219.016.438.016.656 0 6.672-5.078 14.359-14.359 14.359-2.859 0-5.516-.828-7.75-2.266.406.047.797.063 1.219.063 2.359 0 4.531-.797 6.266-2.156a5.056 5.056 0 0 1-4.719-3.5c.313.047.625.078.953.078.453 0 .906-.063 1.328-.172a5.048 5.048 0 0 1-4.047-4.953v-.063a5.093 5.093 0 0 0 2.281.641 5.044 5.044 0 0 1-2.25-4.203c0-.938.25-1.797.688-2.547a14.344 14.344 0 0 0 10.406 5.281 5.708 5.708 0 0 1-.125-1.156 5.045 5.045 0 0 1 5.047-5.047 5.03 5.03 0 0 1 3.687 1.594 9.943 9.943 0 0 0 3.203-1.219 5.032 5.032 0 0 1-2.219 2.781c1.016-.109 2-.391 2.906-.781z"/></symbol></svg>