<svg xmlns="http://www.w3.org/2000/svg" xmlns:xlink="http://www.w3.org/1999/xlink"><symbol viewBox="0 0 24 28" id="bars" xmlns="http://www.w3.org/2000/svg"><path d="M24 21v2c0 .547-.453 1-1 1H1c-.547 0-1-.453-1-1v-2c0-.547.453-1 1-1h22c.547 0 1 .453 1 1zm0-8v2c0 .547-.453 1-1 1H1c-.547 0-1-.453-1-1v-2c0-.547.453-1 1-1h22c.547 0 1 .453 1 1zm0-8v2c0 .547-.453 1-1 1H1c-.547 0-1-.453-1-1V5c0-.547.453-1 1-1h22c.547 0 1 .453 1 1z"/></symbol><symbol viewBox="0 0 22 28" id="close" xmlns="http://www.w3.org/2000/svg"><path d="M20.281 20.656c0 .391-.156.781-.438 1.062l-2.125 2.125c-.281.281-.672.438-1.062.438s-.781-.156-1.062-.438L11 19.249l-4.594 4.594c-.281.281-.672.438-1.062.438s-.781-.156-1.062-.438l-2.125-2.125c-.281-.281-.438-.672-.438-1.062s.156-.781.438-1.062L6.751 15l-4.594-4.594c-.281-.281-.438-.672-.438-1.062s.156-.781.438-1.062l2.125-2.125c.281-.281.672-.438 1.062-.438s.781.156 1.062.438L11 10.751l4.594-4.594c.281-.281.672-.438 1.062-.438s.781.156 1.062.438l2.125 2.125c.281.281.438.672.438 1.062s-.156.781-.438 1.062L15.249 15l4.594 4.594c.281.281.438.672.438 1.062z"/></symbol></svg>